<?xml version="1.0" encoding="UTF-8"?> <svg xmlns="http://www.w3.org/2000/svg" width="158" height="59" viewBox="0 0 158 59" fill="none"><path d="M0 55.3782V52.1101H1.80959V55.2827C1.80959 55.6081 1.85462 55.8751 1.94468 56.0872C2.03475 56.2992 2.1665 56.4643 2.33829 56.5825C2.51174 56.7007 2.7319 56.7816 3.00208 56.8285C3.2706 56.8755 3.58416 56.8982 3.94274 56.8982C4.30132 56.8982 4.61487 56.8739 4.88339 56.8285C5.15191 56.7816 5.3754 56.7007 5.55052 56.5825C5.72564 56.4627 5.8574 56.2992 5.94413 56.0872C6.03085 55.8751 6.07422 55.6064 6.07422 55.2827V52.1101H7.71369V55.3782C7.71369 56.3931 7.39514 57.1215 6.75636 57.565C6.11758 58.0086 5.18026 58.2303 3.94274 58.2303C2.70521 58.2303 1.69618 58.0086 1.01737 57.565C0.340236 57.1215 0.00166818 56.3931 0.00166818 55.3782" fill="black"></path><path d="M18.4444 52.1084L17.1369 56.6553L15.7476 52.1084H13.456L12.04 56.6553L10.7324 52.1084H8.93115L10.669 58.1088H13.0607L14.5034 53.4924L15.9093 58.1088H18.2927L20.0289 52.1084H18.4444Z" fill="black"></path><path d="M27.439 53.1686L28.6749 55.5157H26.2015L27.439 53.1686V53.1686ZM26.3182 52.1084L23.1027 58.1072H24.8305L25.5477 56.7508H29.3203L30.0358 58.1072H31.9088L28.7199 52.1084H26.3182Z" fill="black"></path><path d="M32.6077 55.3782V52.1101H34.4173V55.2827C34.4173 55.6081 34.4623 55.8751 34.5524 56.0872C34.6424 56.2992 34.7742 56.4643 34.946 56.5825C35.1194 56.7007 35.3396 56.7816 35.6098 56.8285C35.8783 56.8755 36.1918 56.8982 36.5504 56.8982C36.909 56.8982 37.2225 56.8739 37.4911 56.8285C37.7596 56.7832 37.9831 56.7007 38.1582 56.5825C38.3333 56.4627 38.4651 56.2992 38.5518 56.0872C38.6385 55.8751 38.6819 55.6064 38.6819 55.2827V52.1101H40.3214V55.3782C40.3214 56.3931 40.0028 57.1215 39.364 57.565C38.7252 58.0086 37.7879 58.2303 36.5504 58.2303C35.3129 58.2303 34.3038 58.0086 33.625 57.565C32.9479 57.1215 32.6093 56.3931 32.6093 55.3782" fill="black"></path><path d="M41.6023 52.1084V53.5005H44.541V58.1088H46.3573V53.5005H49.296V52.1084H41.6023Z" fill="black"></path><path d="M57.1963 55.3442V54.8489C57.1963 54.2807 56.9728 53.8858 56.5242 53.6575C56.0755 53.4309 55.4167 53.3192 54.5445 53.3192C53.6722 53.3192 53.0134 53.4309 52.5681 53.6575C52.1228 53.8842 51.901 54.2807 51.901 54.8489V55.3442C51.901 55.9463 52.1245 56.3575 52.5681 56.5744C53.0117 56.7913 53.6705 56.8997 54.5445 56.8997C55.4184 56.8997 56.0755 56.7913 56.5242 56.5744C56.9728 56.3559 57.1963 55.9463 57.1963 55.3442ZM50.0747 55.0917C50.0747 54.5057 50.1731 54.0153 50.3699 53.6171C50.5667 53.2205 50.8536 52.9016 51.2288 52.6604C51.6058 52.4192 52.0728 52.2477 52.6315 52.1425C53.1902 52.0389 53.8273 51.9871 54.5445 51.9871C55.2616 51.9871 55.8988 52.0389 56.4608 52.1425C57.0229 52.2477 57.4915 52.4192 57.8684 52.6604C58.2437 52.9016 58.5306 53.2205 58.7274 53.6171C58.9242 54.0153 59.0226 54.5057 59.0226 55.0917C59.0226 55.6776 58.9225 56.1794 58.7274 56.5825C58.5289 56.9855 58.2437 57.3077 57.8684 57.5521C57.4915 57.7965 57.0229 57.9697 56.4608 58.0749C55.8988 58.1801 55.26 58.2319 54.5445 58.2319C53.829 58.2319 53.1902 58.1801 52.6315 58.0749C52.0728 57.9697 51.6058 57.7965 51.2288 57.5521C50.8519 57.3077 50.565 56.9855 50.3699 56.5825C50.1714 56.1794 50.0747 55.6841 50.0747 55.0917Z" fill="black"></path><path d="M67.115 52.1084L65.2604 55.943L63.3791 52.1084H60.6205V58.1088H62.2583V53.405L64.1863 57.3432H66.1743L68.099 53.371V58.1088H69.9086V52.1084H67.115Z" fill="black"></path><path d="M78.6245 55.3442V54.8489C78.6245 54.2807 78.4011 53.8858 77.9524 53.6575C77.5038 53.4309 76.845 53.3192 75.9727 53.3192C75.1004 53.3192 74.4416 53.4309 73.9963 53.6575C73.551 53.8842 73.3292 54.2807 73.3292 54.8489V55.3442C73.3292 55.9463 73.551 56.3575 73.9963 56.5744C74.44 56.7913 75.0988 56.8997 75.9727 56.8997C76.8466 56.8997 77.5038 56.7913 77.9524 56.5744C78.4011 56.3559 78.6245 55.9463 78.6245 55.3442ZM71.5029 55.0917C71.5029 54.5057 71.6013 54.0153 71.7981 53.6171C71.9966 53.2205 72.2818 52.9016 72.6587 52.6604C73.0357 52.4192 73.5026 52.2477 74.0597 52.1425C74.6184 52.0389 75.2555 51.9871 75.9727 51.9871C76.6899 51.9871 77.327 52.0389 77.889 52.1425C78.4511 52.2477 78.9197 52.4192 79.2967 52.6604C79.6719 52.9016 79.9588 53.2205 80.1556 53.6171C80.3541 54.0153 80.4508 54.5057 80.4508 55.0917C80.4508 55.6776 80.3524 56.1794 80.1556 56.5825C79.9571 56.9855 79.6719 57.3077 79.2967 57.5521C78.9197 57.7965 78.4511 57.9697 77.889 58.0749C77.327 58.1801 76.6882 58.2319 75.9727 58.2319C75.2572 58.2319 74.6168 58.1801 74.0597 58.0749C73.501 57.9697 73.0357 57.7965 72.6587 57.5521C72.2818 57.3077 71.9949 56.9855 71.7981 56.5825C71.6013 56.1794 71.5029 55.6841 71.5029 55.0917Z" fill="black"></path><path d="M87.5208 56.3509V56.1679C87.5208 55.9705 87.4507 55.8199 87.3106 55.7163C87.1705 55.6111 86.962 55.5593 86.6885 55.5593H83.8482V57.0113H86.6885C86.957 57.0113 87.1622 56.9579 87.3056 56.851C87.449 56.7426 87.5208 56.5775 87.5208 56.3509ZM87.2956 53.8986V53.7691C87.2956 53.5765 87.2339 53.4356 87.1071 53.3417C86.9821 53.2495 86.7969 53.2025 86.5534 53.2025H83.8482V54.4975H86.5534C86.7986 54.4975 86.9821 54.4489 87.1071 54.3469C87.2339 54.2466 87.2956 54.096 87.2956 53.8986ZM82.0453 52.1083H87.1338C87.7776 52.1083 88.2713 52.2313 88.6115 52.4774C88.9518 52.7234 89.1219 53.0844 89.1219 53.5586C89.1219 53.85 89.0502 54.1155 88.9067 54.355C88.7633 54.5962 88.5031 54.7775 88.1262 54.8989C88.5498 55.0041 88.8567 55.1822 89.0452 55.4379C89.2336 55.6921 89.3287 55.9948 89.3287 56.3411C89.3287 56.9158 89.1552 57.3528 88.8083 57.6539C88.4614 57.955 87.9327 58.1055 87.2239 58.1055H82.0453V52.1067V52.1083Z" fill="black"></path><path d="M92.7343 52.1084H90.9264V58.1072H92.7343V52.1084Z" fill="black"></path><path d="M94.634 52.1084V58.1088H101.219V56.822H96.4436V55.6646H100.071V54.4393H96.4436V53.3952H101.184V52.1084H94.634Z" fill="black"></path><path d="M102.831 52.1084V58.1088H109.174V56.7168H104.639V52.1084H102.831Z" fill="black"></path><path d="M109.935 55.1352C109.935 54.5557 110.03 54.0653 110.222 53.6622C110.412 53.2592 110.69 52.9354 111.05 52.6878C111.412 52.4418 111.854 52.2637 112.376 52.1536C112.898 52.0436 113.487 51.9885 114.146 51.9885C115.345 51.9885 116.299 52.1472 117.006 52.466C117.713 52.7865 118.144 53.3353 118.292 54.1187H116.464C116.339 53.7998 116.091 53.5829 115.715 53.4664C115.342 53.3515 114.818 53.2932 114.144 53.2932C113.355 53.2932 112.76 53.4065 112.36 53.6331C111.959 53.8597 111.759 54.2692 111.759 54.8681V55.3635C111.759 55.9721 111.959 56.3849 112.36 56.6018C112.76 56.8187 113.354 56.9271 114.144 56.9271C114.935 56.9271 115.492 56.8526 115.895 56.7021C116.297 56.5516 116.533 56.2877 116.598 55.9106H114.171V54.7872H118.337V55.3359C118.337 55.8636 118.235 56.312 118.032 56.6827C117.829 57.0534 117.545 57.3528 117.176 57.5827C116.809 57.8109 116.367 57.976 115.852 58.078C115.333 58.1783 114.765 58.2301 114.146 58.2301C113.487 58.2301 112.898 58.1783 112.376 58.078C111.854 57.976 111.411 57.806 111.05 57.5649C110.69 57.3237 110.413 57.0048 110.222 56.6082C110.03 56.2116 109.935 55.7212 109.935 55.1352" fill="black"></path><path d="M125.629 54.1351V53.9959C125.629 53.7919 125.566 53.6333 125.44 53.5167C125.315 53.4018 125.09 53.3435 124.768 53.3435H121.74V54.8133H124.768C125.09 54.8133 125.315 54.7518 125.44 54.6304C125.566 54.5074 125.629 54.3439 125.629 54.1351ZM119.932 52.1101H125.135C125.864 52.1101 126.433 52.2752 126.836 52.6103C127.243 52.9421 127.447 53.4261 127.447 54.0574C127.447 54.5381 127.332 54.9379 127.102 55.2536C126.871 55.5692 126.543 55.791 126.121 55.9172L127.644 58.1089H125.592L124.168 56.0662H121.741V58.1089H119.932V52.1101V52.1101Z" fill="black"></path><path d="M135.869 55.3442V54.8489C135.869 54.2807 135.644 53.8858 135.197 53.6575C134.749 53.4309 134.088 53.3192 133.217 53.3192C132.347 53.3192 131.688 53.4309 131.241 53.6575C130.797 53.8842 130.574 54.2807 130.574 54.8489V55.3442C130.574 55.9463 130.797 56.3575 131.241 56.5744C131.686 56.7913 132.344 56.8997 133.217 56.8997C134.091 56.8997 134.75 56.7913 135.197 56.5744C135.644 56.3559 135.869 55.9463 135.869 55.3442ZM128.748 55.0917C128.748 54.5057 128.846 54.0153 129.043 53.6171C129.24 53.2205 129.527 52.9016 129.902 52.6604C130.279 52.4192 130.746 52.2477 131.304 52.1425C131.863 52.0389 132.5 51.9871 133.217 51.9871C133.935 51.9871 134.572 52.0389 135.134 52.1425C135.694 52.2477 136.165 52.4192 136.54 52.6604C136.915 52.9016 137.202 53.2205 137.399 53.6171C137.595 54.0153 137.694 54.5057 137.694 55.0917C137.694 55.6776 137.594 56.1794 137.399 56.5825C137.2 56.9855 136.915 57.3077 136.54 57.5521C136.165 57.7965 135.694 57.9697 135.134 58.0749C134.572 58.1801 133.933 58.2319 133.217 58.2319C132.502 58.2319 131.863 58.1801 131.304 58.0749C130.746 57.9697 130.279 57.7965 129.902 57.5521C129.525 57.3077 129.238 56.9855 129.043 56.5825C128.844 56.1794 128.748 55.6841 128.748 55.0917Z" fill="black"></path><path d="M139.29 52.1084V58.1088H145.875V56.822H141.098V55.6646H144.727V54.4393H141.098V53.3952H145.838V52.1084H139.29Z" fill="black"></path><path d="M153.13 54.326V54.1172C153.13 53.9132 153.068 53.7465 152.941 53.617C152.818 53.4875 152.606 53.4211 152.314 53.4211H149.295V55.0463H152.314C152.614 55.0463 152.824 54.9799 152.946 54.8472C153.07 54.7145 153.13 54.5413 153.13 54.326ZM147.486 52.1084H152.591C153.398 52.1084 153.995 52.2929 154.379 52.6604C154.764 53.0294 154.956 53.5377 154.956 54.1868C154.956 54.8715 154.762 55.404 154.379 55.786C153.994 56.168 153.398 56.3607 152.591 56.3607H149.295V58.1072H147.486V52.1084V52.1084Z" fill="black"></path><path d="M155.308 57.4292C155.308 57.1459 155.391 56.9402 155.563 56.8156C155.733 56.6925 155.985 56.6294 156.32 56.6294C156.655 56.6294 156.897 56.6925 157.069 56.8156C157.239 56.9402 157.324 57.1442 157.324 57.4292C157.324 57.7141 157.239 57.9181 157.069 58.0428C156.899 58.1675 156.65 58.2306 156.32 58.2306C155.99 58.2306 155.733 58.1675 155.563 58.0428C155.393 57.9198 155.308 57.7141 155.308 57.4292Z" fill="black"></path><path d="M75.1955 23.3933C74.6852 23.5196 74.2866 23.6701 73.9964 23.8466C73.7078 24.0247 73.5044 24.253 73.3893 24.5347C73.2742 24.8148 73.2158 25.1742 73.2158 25.6114V26.9875C73.2158 27.4878 73.3893 27.8683 73.7362 28.129C74.0831 28.3896 74.7202 28.5208 75.6458 28.5208H83.5964C84.6388 28.5208 85.5177 28.4463 86.2365 28.3006L77.1035 22.9885C76.3397 23.1342 75.7026 23.2686 75.1939 23.3949" fill="black"></path><path d="M155.018 0H32.1773C28.6415 0 25.3542 1.77731 23.4946 4.6974L0.238435 41.1986C-0.412017 42.2183 0.345175 43.5359 1.58103 43.5359H155.018C156.29 43.5359 157.323 42.5323 157.323 41.2973V2.23701C157.323 1.00196 156.29 0 155.018 0V0ZM64.6181 32.2602H59.9399C59.563 32.2602 59.4079 32.0466 59.1877 31.7131L57.3047 28.8788H39.9694L38.0847 31.7131C37.8662 32.0466 37.7095 32.2602 37.3626 32.2602H32.6526C32.3391 32.2602 32.1172 32.0158 32.4008 31.6192L45.8401 11.4133C46.0286 11.109 46.1853 10.9261 46.5323 10.9261H50.7385C51.0821 10.9261 51.2705 11.109 51.4607 11.4133L64.87 31.6192C65.1519 32.0142 64.93 32.2602 64.6165 32.2602H64.6181ZM98.5917 32.2343L93.4198 32.2489C92.9979 32.2894 92.6293 32.2198 92.3157 32.0352L90.6229 31.0397C89.5972 31.5253 88.453 31.8491 87.1888 32.0029C85.9046 32.1582 84.4052 32.2359 82.6924 32.2359H75.3656C74.023 32.2359 72.8889 32.1129 71.9632 31.862C71.0359 31.6128 70.2888 31.2744 69.7234 30.8471C69.1546 30.4214 68.746 29.9196 68.4892 29.3466C68.234 28.7736 68.1089 28.165 68.1089 27.5191V25.5201C68.1089 24.8111 68.189 24.1976 68.3507 23.6764C68.5125 23.1552 68.791 22.7068 69.1847 22.3329C69.5783 21.9573 70.1036 21.6401 70.7641 21.3795C71.4245 21.1189 72.2618 20.8842 73.2825 20.677C72.2618 20.1137 71.5463 19.5682 71.1293 19.0356C70.7124 18.5047 70.5039 17.8427 70.5039 17.0511V14.8643C70.5039 13.4884 70.9726 12.4913 71.9099 11.8649C72.8489 11.2401 74.3232 10.9293 76.3363 10.9293H84.2868C86.51 10.9293 88.1078 11.3145 89.0785 12.0867C90.0508 12.8555 90.5378 13.898 90.5378 15.2107V16.5866C90.5378 17.0657 90.4811 17.5286 90.3644 17.977C90.2459 18.4238 90.0341 18.8349 89.7222 19.2105C89.4087 19.586 88.9917 19.9194 88.4714 20.2108C87.951 20.5038 87.2855 20.732 86.4767 20.8987L81.6133 21.9606L89.9124 26.7098C90.5161 25.9814 90.833 24.9228 90.8947 23.5695L90.9047 22.0561C90.9064 21.7566 91.0615 21.6061 91.365 21.6029L95.0526 21.5851C95.3412 21.5834 95.4829 21.7275 95.4963 22.0027H95.5046V22.0286V23.2102C95.5046 25.5427 94.8658 27.4398 93.5949 28.8966L93.5833 28.9063L98.3632 31.7018C98.6768 31.8863 99.0704 32.2392 98.5901 32.2392L98.5917 32.2343ZM136.441 31.7762C136.441 32.0806 136.253 32.2635 135.939 32.2635H131.922C131.608 32.2635 131.451 32.0789 131.451 31.7762V17.4202H131.104L122.06 31.7762C121.87 32.0806 121.651 32.2635 121.308 32.2635H117.885C117.542 32.2635 117.32 32.0789 117.131 31.7762L108.088 17.4202H107.741V31.7762C107.741 32.0806 107.585 32.2635 107.271 32.2635H103.253C102.941 32.2635 102.75 32.0789 102.75 31.7762V11.4181C102.75 11.1138 102.941 10.9309 103.253 10.9309H109.064C109.378 10.9309 109.566 11.0831 109.753 11.389L119.395 26.6564H119.801L129.441 11.389C129.63 11.0847 129.818 10.9309 130.13 10.9309H135.941C136.255 10.9309 136.443 11.1138 136.443 11.4181V31.7762H136.441Z" fill="black"></path><path d="M48.4469 16.0764L42.7013 24.7315H54.5712L48.8572 16.0764H48.4469Z" fill="black"></path><path d="M75.2473 17.9585C75.3507 18.1253 75.4941 18.2823 75.6826 18.428C75.8677 18.5737 76.1212 18.7405 76.4448 18.9267L77.7657 19.6763L84.1535 18.3325C84.7339 18.2078 85.1375 18.0524 85.3693 17.863C85.5995 17.6752 85.7162 17.3109 85.7162 16.7701V15.6449C85.7162 15.1867 85.5544 14.8759 85.2309 14.7075C84.9057 14.5407 84.3753 14.4565 83.6331 14.4565H76.7934C76.1229 14.4565 75.6526 14.5618 75.3874 14.769C75.1222 14.9779 74.9888 15.3405 74.9888 15.8619V16.55C74.9888 16.8624 75.0054 17.1344 75.0405 17.3643C75.0772 17.5926 75.1455 17.7901 75.2506 17.9569" fill="black"></path></svg> 