<svg xmlns:xlink="http://www.w3.org/1999/xlink" xmlns="http://www.w3.org/2000/svg" class="icon" width="1102.65"  height="238.8" ><defs><symbol id="icon-logo" viewBox="0 0 1102.65 238.8">
        <title>Logo Autosphere</title>
        <path d="M114.8,0C82.3,0,52.7,14.4,30.4,39.3C7.8,64.8-3,98.6,0.7,132.4C5,171.3,28.4,204.6,61.1,223
	c-17.2-18.7-27.6-45.7-27.6-69.8c0-58.5,36.8-88.8,72.3-95.2c4.4-1,9-1.5,13.6-1.5c1.1,0,2.2,0,3.3,0.1
	c24.6,1.3,44.6,23.2,44.6,48.9V166c19.6-11,29.6-35.1,29.6-70.7C196.8,25.5,147.1,0,114.8,0"></path>
        <path d="M204.5,98.5c-0.8,46.6-18.2,67.3-37.3,76.2v0.2c-12.9,6.1-31.6,8.3-54.4,6c-34.3-3.6-59.2-34.3-55.6-68.6
	c0.9-8.7,3.6-17.1,8-24.6c-17.1,18.1-23.9,43.5-23.9,65.4c0,30,17.9,85.6,88.2,85.6c35.7,0,64.9-9.4,85.2-27.7
	c6-5.4,9.4-13.1,9.4-21.1v-84.5c0.2-39.3-21.4-75.6-56.1-94.1C188.4,27.2,205.1,52.8,204.5,98.5"></path>
        <path d="M366.6,164.6h-19.3v-8.4c-6,6.6-14.7,10.1-24.3,10.1c-21,0-38.2-18.6-38.2-41.5c0-23.1,16.9-42,41-42s40.9,18.9,40.9,42
	L366.6,164.6z M325.8,102c-11.3,0-20.4,9.8-20.4,22.9c0,12.7,9.1,22.4,20.4,22.4s20.4-10,20.4-22.4C346.2,112.2,337.1,102,325.8,102
	"></path>
        <path d="M452.1,164.6h-19.5v-7.3c-5.1,5.9-12.5,9.3-20.3,9.1c-18.9,0-31.4-14.1-31.4-35V84.8h20.4v46.6c0,4.5,1.5,15.6,14.9,15.6
	c9.1,0,15.5-6.8,15.5-15.6V84.8h20.4L452.1,164.6z"></path>
        <path d="M508.8,164.4c-23.4,2.5-35.8-11.6-35.8-33.4v-28h-9.6V84.8h9.6V64.6h20.4v20.3h14.4v18.1h-14.4v28.2
	c0,11.1,5.1,15.3,15.3,14.7V164.4z"></path>
        <path d="M599.4,124.8c0,23.8-18.1,41.6-40.2,41.6s-40.1-17.8-40.1-41.6s18-41.9,40.1-41.9S599.4,100.9,599.4,124.8 M578.9,124.9
	c0-13.8-8.8-23.4-19.7-23.4s-19.7,9.6-19.7,23.4c0,13.5,8.8,22.7,19.7,22.7S578.9,138.4,578.9,124.9"></path>
        <path d="M646.5,166.4c-20.3,0-35.3-10.7-37.8-27.9h20.7c2.8,6.8,11,9.3,17,9.3c8.2,0,14.4-2.5,14.4-7.1c0-4.6-2.8-6.4-16.7-8.5
	c-14.3-2.2-33.3-6-33.3-23.8c0-12.5,11-25.6,34-25.6c18.3,0,31.9,9.9,34.5,24.9h-21.1c-1.2-3.7-5.7-6.7-13.3-6.7
	c-9.4,0-13.3,3.4-13.3,6.3c0,4.2,5.9,5.6,15.8,7.1c19.8,3.3,34.1,7.6,34.1,24.9C681.5,155.3,667,166.4,646.5,166.4"></path>
        <path d="M739.6,166.3c-8.7,0-17.1-3.4-23.4-9.4V200h-20.6V84.8h19.7v8.4c6.4-6.6,15.2-10.2,24.3-10.2c20.9,0,37.9,18,37.9,41.5
	C777.5,148.2,760.5,166.3,739.6,166.3 M736.6,102c-11.3,0-20.4,10.1-20.4,22.4c0,12.5,9.1,22.8,20.4,22.8s20.4-9.8,20.4-22.8
	C757,111.6,747.9,102,736.6,102"></path>
        <path d="M862,164.6h-20.5V118c0-4.7-1.5-15.2-14.8-15.2c-9.1,0-15.5,6.2-15.5,15.2v46.6h-20.6V49.4h20.6V89c5.2-4,11.7-6.2,18.3-6.2
	C849,82.8,862,96.9,862,118V164.6z"></path>
        <path d="M896,132.7c2.6,9.8,10.4,15.8,20,15.8c6.8,0,13.5-2.9,16.9-9.3h21.8c-4.6,16.3-18.7,27.2-38.5,27.2
	c-22.4,0-40.8-18.6-40.8-41.6s18.4-42,40.8-42c23.5,0,43,18.3,40.1,49.8L896,132.7z M936,115.9c-2.5-9.3-10.2-15.2-20-15.2
	c-9.3,0-16.7,5.9-19.7,15.2H936z"></path>
        <path d="M1015.7,103.1c-8.2-0.9-15,0-19.7,4.9c-4.3,4.5-5.1,11-5.1,17.3v39.1h-20.4V84.8H990v7.9c6.5-8.1,16.1-11,25.7-9.4
	L1015.7,103.1z"></path>
        <path d="M1042.1,132.7c2.6,9.8,10.4,15.8,20,15.8c6.8,0,13.5-2.9,16.9-9.3h21.8c-4.6,16.3-18.7,27.2-38.5,27.2
	c-22.4,0-40.9-18.6-40.9-41.6s18.4-42,40.9-42c23.5,0,43,18.3,40.1,49.8L1042.1,132.7z M1082.1,115.9c-2.5-9.3-10.2-15.2-20-15.2
	c-9.3,0-16.7,5.9-19.7,15.2H1082.1z"></path>
    </symbol></defs>
                <use xlink:href="#icon-logo"></use>
            </svg>