<svg width="131" height="16" viewBox="0 0 131 16" xmlns="http://www.w3.org/2000/svg">
    <g fill="none" fill-rule="evenodd">
        <path d="M11.889 4.798 9.315 9.694h3.006l-.432-4.896zm.933 10.68-.16-1.776H7.199l-.934 1.776H.822L9.77.29h5.784l2.254 15.188h-4.987zM18.88 10.195c0-.182.068-.729.113-.956l1.981-8.95h4.669l-1.959 8.836a3.053 3.053 0 0 0-.045.546c.022.98.82 2.072 2.55 2.072 1.867 0 2.846-1.16 3.165-2.618L31.312.29h4.668L34 9.216c-.798 3.666-2.915 6.535-7.811 6.535-4.964 0-7.31-2.3-7.31-5.556M38.349 15.478l2.46-11.18h-4.077L37.621.29h12.728l-.888 4.008h-4.053l-2.46 11.18zM62.008 7.326c0-1.867-1.366-3.234-3.416-3.234-2.414 0-4.099 2.05-4.099 4.373 0 1.867 1.367 3.233 3.416 3.233 2.414 0 4.099-2.05 4.099-4.372M49.734 8.783c0-4.85 3.849-8.744 9.131-8.744 4.487 0 7.902 2.824 7.902 6.923 0 4.85-3.825 8.79-9.108 8.79-4.509 0-7.925-2.847-7.925-6.969" fill="#003E70"/>
        <path fill="#F37121" d="m76.9 15.478 1.275-5.807h-5.442l-1.275 5.807h-4.6L70.206.29h4.6L73.62 5.664h5.442L80.248.29h4.6L81.5 15.478zM83.732 15.478 87.079.29h11.522l-.888 4.008H90.79L90.472 5.8h6.762l-.887 4.008h-6.763l-.365 1.662h6.923l-.888 4.008zM106.844 6.688c1.002 0 1.73-.432 1.73-1.298 0-.637-.569-1.093-1.275-1.093h-2.732l-.524 2.391h2.801zm-.797 8.79L105 10.696h-1.845l-1.047 4.782h-4.6L100.855.29h7.378c2.755 0 5.1 1.799 5.1 4.6 0 2.686-1.753 4.759-3.734 5.464l1.503 5.124h-5.055zM126.063 7.326c0-1.867-1.366-3.234-3.416-3.234-2.414 0-4.099 2.05-4.099 4.373 0 1.867 1.367 3.233 3.416 3.233 2.414 0 4.099-2.05 4.099-4.372m-12.274 1.457c0-4.85 3.849-8.744 9.131-8.744 4.486 0 7.902 2.824 7.902 6.923 0 4.85-3.826 8.79-9.108 8.79-4.509 0-7.925-2.847-7.925-6.969"/>
    </g>
</svg>
