<?xml version="1.0" standalone="no"?>
<!DOCTYPE svg PUBLIC "-//W3C//DTD SVG 20010904//EN"
 "http://www.w3.org/TR/2001/REC-SVG-20010904/DTD/svg10.dtd">
<svg version="1.0" xmlns="http://www.w3.org/2000/svg"
 width="163.000000pt" height="32.000000pt" viewBox="0 0 163.000000 32.000000"
 preserveAspectRatio="xMidYMid meet">

<g transform="translate(0.000000,32.000000) scale(0.100000,-0.100000)"
fill="#000000" stroke="none">
<path d="M0 291 l0 -31 196 -2 c174 -3 198 -5 208 -20 23 -37 -4 -43 -209 -46
l-195 -3 0 -24 0 -24 195 -3 c205 -3 232 -9 209 -46 -10 -15 -34 -17 -208 -20
l-196 -2 0 -31 0 -30 209 3 c192 3 211 5 231 23 34 30 42 61 27 98 -11 25 -11
38 -2 61 16 37 8 69 -22 98 -24 22 -31 23 -234 26 l-209 3 0 -30z"/>
<path d="M550 246 c0 -102 10 -112 118 -121 l82 -7 0 31 c0 30 -1 31 -46 31
-73 0 -84 11 -84 80 l0 60 -35 0 -35 0 0 -74z"/>
<path d="M1000 256 c0 -75 0 -76 -127 -76 l-83 0 0 -85 0 -85 40 0 40 0 0 60
0 60 83 0 c109 0 117 8 117 113 l0 77 -35 0 -35 0 0 -64z"/>
<path d="M1150 291 l0 -31 155 0 c203 0 246 -16 248 -95 1 -26 -6 -43 -26 -63
l-27 -27 -175 -3 -175 -3 0 -30 0 -29 168 0 c154 0 171 2 212 23 116 58 121
196 10 261 -31 19 -55 21 -212 24 l-178 4 0 -31z"/>
</g>
</svg>
