<svg id="Group_1" data-name="Group 1" xmlns="http://www.w3.org/2000/svg" preserveAspectRatio="xMidYMid meet" viewBox="0 0 357 54">
  <path id="Path_1" data-name="Path 1" d="M52.1,65H64.442l9.494,24.768c1.329,3.429,2.468,6.668,3.418,9.526h.19c.949-2.858,2.089-6.1,3.418-9.526L90.454,65H102.8L82.384,115.013H72.416Z" transform="translate(-52.1 -61.392)" fill="#232323"/>
  <path id="Path_2" data-name="Path 2" d="M138.1,79.654h9.683l1.139,3.608A19.627,19.627,0,0,1,160.884,78.8c5.7,0,11.962,2.278,11.962,13.2V115.16h-11.3V95.319c0-3.7-.57-6.835-4.842-6.835a12.1,12.1,0,0,0-7.215,2.658V115.16h-11.3V79.654Z" transform="translate(-56.252 -61.92)" fill="#232323"/>
  <path id="Path_3" data-name="Path 3" d="M201.595,65h10.348l12.342,17.338a61.344,61.344,0,0,1,3.8,5.906h.19a59.607,59.607,0,0,1,3.608-6.287L242.987,65H253.43v49.633H241.943V89.293c0-1.81,0-3.811.095-5.335h-.095a58.612,58.612,0,0,1-3.323,5.24l-8.069,12.194h-5.032L216.4,88.816a42.883,42.883,0,0,1-3.323-4.859h-.19c.095,1.619.095,3.62.095,4.954v25.626H201.5V65Z" transform="translate(-59.292 -61.392)" fill="#232323"/>
  <path id="Path_4" data-name="Path 4" d="M261.4,97.312c0-10.823,7.69-18.512,18.7-18.512s18.7,7.69,18.7,18.512-7.69,18.607-18.7,18.607S261.4,108.135,261.4,97.312Zm25.728,0c0-5.506-2.089-9.588-7.12-9.588s-7.12,4.082-7.12,9.588,2.089,9.683,7.12,9.683S287.127,102.819,287.127,97.312Z" transform="translate(-62.2 -61.92)" fill="#232323"/>
  <path id="Path_5" data-name="Path 5" d="M306.813,104.053a19.56,19.56,0,0,0,10.158,3.133c3.228,0,5.316-.57,5.316-2.373,0-4.842-16.709-2.753-16.709-14.715,0-6.835,5.7-11.3,14.43-11.3A34.553,34.553,0,0,1,331.4,80.6V90a30.066,30.066,0,0,0-10.918-2.468c-2.753,0-3.892.759-3.892,2.089,0,4.082,16.709,2.278,16.709,14.9,0,8.354-7.4,11.392-15.285,11.392a27.709,27.709,0,0,1-14.715-3.8Z" transform="translate(-64.236 -61.92)" fill="#232323"/>
  <path id="Path_6" data-name="Path 6" d="M342.013,104.053a19.56,19.56,0,0,0,10.158,3.133c3.228,0,5.316-.57,5.316-2.373,0-4.842-16.709-2.753-16.709-14.715,0-6.835,5.7-11.3,14.43-11.3A34.553,34.553,0,0,1,366.6,80.6V90a30.066,30.066,0,0,0-10.918-2.468c-2.753,0-3.892.759-3.892,2.089,0,4.082,16.709,2.278,16.709,14.9,0,8.354-7.4,11.392-15.285,11.392a27.709,27.709,0,0,1-14.715-3.8Z" transform="translate(-65.936 -61.92)" fill="#232323"/>
  <path id="Path_7" data-name="Path 7" d="M386.292,100.825c.19,4.367,3.987,6.361,8.734,6.361a16.868,16.868,0,0,0,9.114-2.373l3.323,7.69a24.946,24.946,0,0,1-13.386,3.418c-14.145,0-19.177-9.019-19.177-18.038,0-10.633,5.791-19.082,16.993-19.082,10.633,0,16.9,7.31,16.9,19.462v2.658h-22.5Zm11.2-7.5c-.095-3.038-1.614-6.171-5.791-6.171-3.8,0-5.506,3.038-5.506,6.171Z" transform="translate(-67.646 -61.92)" fill="#232323"/>
  <path id="Path_8" data-name="Path 8" d="M416.1,61.2h10.633v53.146H416.1Z" transform="translate(-69.733 -61.2)" fill="#232323"/>
  <path id="Path_9" data-name="Path 9" d="M119.286,112.982a13.973,13.973,0,0,1-8.829,2.943c-6.93,0-12.057-4.842-12.057-11.582,0-4.842,2.278-7.69,5.886-9.683a23.23,23.23,0,0,1,9.4-2.184l5.6-.19v-.38c0-3.323-2.373-4.652-6.266-4.652A20.711,20.711,0,0,0,104,89.438l-3.513-7.12a32.246,32.246,0,0,1,14.62-3.418c10.918,0,14.81,4.842,14.81,13.481V115.26H119.286Zm-3.8-13.481a9.352,9.352,0,0,0-4.177.949,3.321,3.321,0,0,0-1.614,3.038c0,2.468,1.709,3.7,4.462,3.7a11.206,11.206,0,0,0,5.221-1.234V99.311Z" transform="translate(-54.445 -61.925)" fill="#232323"/>
</svg>
